<?xml version="1.0" standalone="no"?>
<!DOCTYPE svg PUBLIC "-//W3C//DTD SVG 20010904//EN"
 "http://www.w3.org/TR/2001/REC-SVG-20010904/DTD/svg10.dtd">
<svg version="1.0" xmlns="http://www.w3.org/2000/svg"
 width="517.000000pt" height="482.000000pt" viewBox="0 0 517.000000 482.000000"
 preserveAspectRatio="xMidYMid meet">

<g transform="translate(0.000000,482.000000) scale(0.100000,-0.100000)"
fill="#000000" stroke="none">
<path d="M2357 4800 c-545 -57 -1001 -274 -1386 -660 -253 -254 -444 -581
-544 -932 -60 -210 -86 -373 -87 -545 l0 -73 70 0 70 0 0 64 c0 165 56 456
123 634 49 133 37 129 187 59 160 -74 145 -72 164 -24 9 22 15 41 13 42 -1 1
-64 31 -140 68 l-138 68 42 77 c104 188 230 353 385 502 98 95 208 186 252
209 28 15 37 9 70 -43 21 -31 106 -155 129 -185 5 -7 73 33 73 42 0 5 -10 22
-21 39 -12 16 -48 73 -79 126 l-58 97 101 57 c56 31 106 57 112 58 5 0 50 18
100 39 91 40 267 91 405 116 93 18 300 39 307 31 3 -3 8 -74 11 -158 l5 -153
43 0 44 0 0 96 c0 53 3 124 6 158 l7 62 66 -6 c339 -32 638 -120 871 -255 41
-23 77 -44 79 -46 2 -2 -13 -32 -35 -66 -21 -35 -57 -94 -80 -132 l-42 -70 36
-28 36 -29 18 23 c10 13 31 43 46 68 14 25 41 64 59 88 18 24 37 51 42 60 9
16 12 16 43 -2 117 -69 362 -311 482 -477 50 -68 176 -279 176 -293 0 -6 -63
-41 -140 -79 l-140 -67 21 -41 c25 -49 24 -49 182 22 61 27 115 49 121 49 22
0 103 -250 136 -420 11 -58 24 -166 28 -240 l7 -135 73 -3 72 -3 0 83 c0 140
-43 409 -89 553 -59 189 -152 395 -236 525 -16 25 -35 55 -41 66 -32 59 -171
228 -271 329 -288 292 -601 472 -1043 600 -160 46 -551 75 -743 55z"/>
<path d="M3628 3284 l-637 -305 -63 44 c-38 26 -103 56 -163 77 -86 28 -117
34 -220 38 -172 6 -292 -27 -431 -121 -178 -119 -285 -303 -303 -522 l-6 -80
-742 -3 -743 -2 0 -23 c0 -12 7 -64 15 -116 9 -52 14 -95 13 -96 -2 -2 -68
-34 -148 -73 -130 -62 -147 -74 -167 -110 -40 -70 -35 -87 118 -410 78 -163
151 -317 164 -342 13 -25 39 -79 58 -120 48 -101 81 -132 149 -138 50 -4 64 1
202 67 l148 72 117 -112 c64 -62 127 -122 140 -134 l23 -22 -45 -105 c-97
-222 -106 -265 -68 -330 24 -39 36 -46 206 -117 218 -90 388 -162 505 -211
174 -73 210 -84 252 -76 52 10 101 60 127 131 12 33 41 102 63 153 31 70 45
91 57 88 80 -24 435 -30 564 -9 l37 6 39 -84 c21 -46 53 -118 70 -160 37 -89
72 -120 140 -127 48 -4 90 10 311 108 191 84 543 237 576 250 32 13 74 73 81
114 6 36 -21 111 -97 280 -28 62 -30 70 -15 78 42 24 295 263 295 279 0 20 39
6 179 -63 116 -57 158 -73 203 -76 97 -7 104 3 334 488 256 541 257 508 -13
640 -121 59 -163 84 -163 97 1 10 7 60 14 111 l13 92 -794 0 -793 0 0 65 c0
36 -7 100 -16 141 -8 42 -14 77 -12 78 9 6 179 145 214 176 22 19 71 60 108
90 63 51 136 111 196 162 14 12 85 71 158 132 74 61 159 132 190 158 32 27 80
65 107 87 45 34 105 93 94 90 -2 -1 -291 -138 -641 -305z m-972 -298 c153 -41
310 -166 372 -297 128 -269 49 -568 -193 -734 -119 -82 -307 -116 -445 -80
-212 55 -370 211 -426 420 -16 59 -18 202 -3 265 35 153 159 308 303 379 44
22 99 45 121 50 61 14 214 12 271 -3z"/>
<path d="M2500 2815 c0 -28 -4 -35 -20 -35 -66 0 -174 -91 -186 -157 -20 -109
23 -183 132 -224 l69 -26 3 -108 3 -108 -33 7 c-18 3 -52 19 -74 35 l-42 29
-41 -42 c-39 -40 -41 -43 -24 -58 36 -32 103 -59 157 -65 56 -6 56 -6 56 -39
0 -30 3 -34 25 -34 22 0 25 4 25 35 0 30 4 35 28 40 54 12 131 55 156 88 15
19 32 59 38 90 11 51 10 58 -15 109 -23 46 -35 59 -79 80 -29 14 -70 31 -90
37 l-38 13 0 99 c0 97 0 99 24 99 13 0 41 -12 62 -26 l39 -26 37 42 c29 33 36
46 27 56 -16 20 -115 54 -154 54 -33 0 -35 2 -35 35 0 31 -3 35 -25 35 -22 0
-25 -4 -25 -35z m0 -234 l0 -90 -30 11 c-37 12 -60 43 -60 79 0 33 45 89 71
89 17 0 19 -8 19 -89z m138 -268 c35 -47 5 -119 -59 -142 l-29 -10 0 100 0 99
38 -15 c20 -9 43 -23 50 -32z"/>
</g>
</svg>
